<svg xmlns="http://www.w3.org/2000/svg" version="1.1" xmlns:xlink="http://www.w3.org/1999/xlink" xmlns:svgjs="http://svgjs.dev/svgjs" width="1000" height="191" viewBox="0 0 1000 191"><g transform="matrix(1,0,0,1,-0.6060008694790326,-0.5314448541736851)"><svg viewBox="0 0 396 76" data-background-color="#ffffff" preserveAspectRatio="xMidYMid meet" height="191" width="1000" xmlns="http://www.w3.org/2000/svg" xmlns:xlink="http://www.w3.org/1999/xlink"><g id="tight-bounds" transform="matrix(1,0,0,1,0.23997745317399222,0.21146496815288174)"><svg viewBox="0 0 395.52 75.57707006369425" height="75.57707006369425" width="395.52"><g><svg viewBox="0 0 395.52 75.57707006369425" height="75.57707006369425" width="395.52"><g><svg viewBox="0 0 395.52 75.57707006369425" height="75.57707006369425" width="395.52"><g><svg viewBox="0 0 395.52 75.57707006369425" height="75.57707006369425" width="395.52"><g><svg viewBox="0 0 395.52 75.57707006369425" height="75.57707006369425" width="395.52"><g transform="matrix(1,0,0,1,0,0)"><svg width="395.52" viewBox="3.90000057220459 -35.5 204.0999755859375 36" height="75.57707006369425" data-palette-color="#113f67"><svg></svg><g class="undefined-text-0" data-fill-palette-color="primary" id="text-0"><path xmlns="http://www.w3.org/2000/svg" d="M9.35 0h-4.2c-0.367 0-0.667-0.117-0.9-0.35-0.233-0.233-0.35-0.517-0.35-0.85v0-32.55c0-0.367 0.117-0.667 0.35-0.9 0.233-0.233 0.533-0.35 0.9-0.35v0h3.95c0.467 0 0.817 0.123 1.05 0.37 0.233 0.253 0.383 0.447 0.45 0.58v0l9.65 18 9.75-18c0.067-0.133 0.217-0.327 0.45-0.58 0.233-0.247 0.583-0.37 1.05-0.37v0h3.9c0.367 0 0.667 0.117 0.9 0.35 0.233 0.233 0.35 0.533 0.35 0.9v0 32.55c0 0.333-0.117 0.617-0.35 0.85-0.233 0.233-0.533 0.35-0.9 0.35v0h-4.2c-0.367 0-0.657-0.117-0.87-0.35-0.22-0.233-0.33-0.517-0.33-0.85v0-21.65l-7 13.35c-0.167 0.3-0.383 0.56-0.65 0.78-0.267 0.213-0.617 0.32-1.05 0.32v0h-2.05c-0.467 0-0.823-0.107-1.07-0.32-0.253-0.22-0.463-0.48-0.63-0.78v0l-7-13.35v21.65c0 0.333-0.117 0.617-0.35 0.85-0.233 0.233-0.517 0.35-0.85 0.35zM68.05 0h-22.4c-0.333 0-0.617-0.117-0.85-0.35-0.233-0.233-0.35-0.517-0.35-0.85v0-32.55c0-0.367 0.117-0.667 0.35-0.9 0.233-0.233 0.517-0.35 0.85-0.35v0h22c0.367 0 0.667 0.117 0.9 0.35 0.233 0.233 0.35 0.533 0.35 0.9v0 3.3c0 0.333-0.117 0.617-0.35 0.85-0.233 0.233-0.533 0.35-0.9 0.35v0h-16.45v8.85h15.35c0.367 0 0.667 0.107 0.9 0.32 0.233 0.22 0.35 0.513 0.35 0.88v0 3.1c0 0.367-0.117 0.657-0.35 0.87-0.233 0.22-0.533 0.33-0.9 0.33v0h-15.35v9.15h16.85c0.367 0 0.667 0.117 0.9 0.35 0.233 0.233 0.35 0.533 0.35 0.9v0 3.3c0 0.333-0.117 0.617-0.35 0.85-0.233 0.233-0.533 0.35-0.9 0.35zM81.3 0h-4.55c-0.333 0-0.617-0.117-0.85-0.35-0.233-0.233-0.35-0.517-0.35-0.85v0-32.55c0-0.367 0.117-0.667 0.35-0.9 0.233-0.233 0.517-0.35 0.85-0.35v0h12.95c4.033 0 7.217 0.933 9.55 2.8 2.333 1.867 3.5 4.583 3.5 8.15v0c0 2.467-0.607 4.517-1.82 6.15-1.22 1.633-2.847 2.817-4.88 3.55v0l7.3 12.75c0.1 0.2 0.15 0.383 0.15 0.55v0c0 0.3-0.107 0.55-0.32 0.75-0.22 0.2-0.463 0.3-0.73 0.3v0h-4.55c-0.567 0-1-0.15-1.3-0.45-0.3-0.3-0.533-0.6-0.7-0.9v0l-6.45-11.85h-6.95v12c0 0.333-0.107 0.617-0.32 0.85-0.22 0.233-0.513 0.35-0.88 0.35zM82.5-29.45v10.6h7.05c2.033 0 3.55-0.46 4.55-1.38 1-0.913 1.5-2.203 1.5-3.87v0c0-1.667-0.49-2.977-1.47-3.93-0.987-0.947-2.513-1.42-4.58-1.42v0zM122.7 0.5v0c-3.1 0-5.723-0.543-7.87-1.63-2.153-1.08-3.797-2.63-4.93-4.65-1.133-2.013-1.767-4.437-1.9-7.27v0c-0.033-1.367-0.05-2.833-0.05-4.4 0-1.567 0.017-3.067 0.05-4.5v0c0.133-2.8 0.777-5.217 1.93-7.25 1.147-2.033 2.797-3.593 4.95-4.68 2.147-1.08 4.753-1.62 7.82-1.62v0c2.267 0 4.3 0.3 6.1 0.9 1.8 0.6 3.333 1.423 4.6 2.47 1.267 1.053 2.25 2.28 2.95 3.68 0.7 1.4 1.067 2.917 1.1 4.55v0c0.033 0.3-0.057 0.55-0.27 0.75-0.22 0.2-0.48 0.3-0.78 0.3v0h-4.75c-0.367 0-0.667-0.093-0.9-0.28-0.233-0.18-0.4-0.487-0.5-0.92v0c-0.533-2.2-1.45-3.7-2.75-4.5-1.3-0.8-2.917-1.2-4.85-1.2v0c-2.233 0-4.017 0.623-5.35 1.87-1.333 1.253-2.05 3.313-2.15 6.18v0c-0.1 2.733-0.1 5.533 0 8.4v0c0.1 2.867 0.817 4.923 2.15 6.17 1.333 1.253 3.117 1.88 5.35 1.88v0c1.933 0 3.56-0.41 4.88-1.23 1.313-0.813 2.22-2.303 2.72-4.47v0c0.1-0.467 0.267-0.783 0.5-0.95 0.233-0.167 0.533-0.25 0.9-0.25v0h4.75c0.3 0 0.56 0.1 0.78 0.3 0.213 0.2 0.303 0.45 0.27 0.75v0c-0.033 1.633-0.4 3.15-1.1 4.55-0.7 1.4-1.683 2.623-2.95 3.67-1.267 1.053-2.8 1.88-4.6 2.48-1.8 0.6-3.833 0.9-6.1 0.9zM149.15 0h-4.55c-0.333 0-0.617-0.11-0.85-0.33-0.233-0.213-0.35-0.503-0.35-0.87v0-32.55c0-0.367 0.117-0.667 0.35-0.9 0.233-0.233 0.517-0.35 0.85-0.35v0h4.55c0.367 0 0.66 0.117 0.88 0.35 0.213 0.233 0.32 0.533 0.32 0.9v0 12.9h14.75v-12.9c0-0.367 0.117-0.667 0.35-0.9 0.233-0.233 0.517-0.35 0.85-0.35v0h4.5c0.367 0 0.667 0.117 0.9 0.35 0.233 0.233 0.35 0.533 0.35 0.9v0 32.55c0 0.333-0.117 0.617-0.35 0.85-0.233 0.233-0.533 0.35-0.9 0.35v0h-4.5c-0.333 0-0.617-0.117-0.85-0.35-0.233-0.233-0.35-0.517-0.35-0.85v0-13.4h-14.75v13.4c0 0.333-0.107 0.617-0.32 0.85-0.22 0.233-0.513 0.35-0.88 0.35zM194.8 0h-4.55c-0.333 0-0.617-0.117-0.85-0.35-0.233-0.233-0.35-0.517-0.35-0.85v0-11.3l-11.8-20.9c-0.033-0.067-0.067-0.15-0.1-0.25-0.033-0.1-0.05-0.2-0.05-0.3v0c0-0.3 0.1-0.55 0.3-0.75 0.2-0.2 0.433-0.3 0.7-0.3v0h4.45c0.4 0 0.723 0.1 0.97 0.3 0.253 0.2 0.43 0.417 0.53 0.65v0l8.5 14.55 8.45-14.55c0.133-0.233 0.323-0.45 0.57-0.65 0.253-0.2 0.58-0.3 0.98-0.3v0h4.4c0.3 0 0.55 0.1 0.75 0.3 0.2 0.2 0.3 0.45 0.3 0.75v0c0 0.1-0.01 0.2-0.03 0.3-0.013 0.1-0.053 0.183-0.12 0.25v0l-11.8 20.9v11.3c0 0.333-0.117 0.617-0.35 0.85-0.233 0.233-0.533 0.35-0.9 0.35z" fill="#113f67" fill-rule="nonzero" stroke="none" stroke-width="1" stroke-linecap="butt" stroke-linejoin="miter" stroke-miterlimit="10" stroke-dasharray="" stroke-dashoffset="0" font-family="none" font-weight="none" font-size="none" text-anchor="none" style="mix-blend-mode: normal" data-fill-palette-color="primary" opacity="1"></path></g></svg></g></svg></g></svg></g></svg></g></svg></g><defs></defs></svg><rect width="395.52" height="75.57707006369425" fill="none" stroke="none" visibility="hidden"></rect></g></svg></g></svg>